<svg width="48" height="48" viewBox="0 0 48 48" fill="none" xmlns="http://www.w3.org/2000/svg">
    <rect width="48" height="48" rx="4" fill="black"/>
    <path fill-rule="evenodd" clip-rule="evenodd" d="M28.1255 5.22496C28.1255 2.87816 25.2811 1.71071 23.6324 3.38082L3.29498 23.9824C1.65776 25.6409 2.83261 28.4515 5.16308 28.4515H19.6207L19.6207 42.5535C19.6207 44.9003 22.4651 46.0677 24.1138 44.3976L44.4512 23.796C46.0885 22.1376 44.9136 19.3269 42.5831 19.3269L28.1255 19.3269V5.22496Z" fill="url(#paint0_linear_1_2)"/>
    <path fill-rule="evenodd" clip-rule="evenodd" d="M30.642 8.01455C31.502 8.87459 31.502 10.269 30.642 11.129L21.2985 20.4725L21.2985 20.4725L21.2985 20.4726C19.5784 22.1926 19.5784 24.9814 21.2985 26.7015C23.0186 28.4216 25.8074 28.4216 27.5275 26.7015L27.537 26.692L36.871 17.358C37.731 16.498 39.1254 16.498 39.9855 17.358C40.8455 18.2181 40.8455 19.6125 39.9855 20.4725L30.6563 29.8017L30.642 29.816C27.7395 32.7185 23.3156 33.1722 19.9375 31.177L15.0695 36.045C15.9295 36.9051 15.9295 38.2995 15.0695 39.1595C14.2094 40.0196 12.815 40.0196 11.955 39.1595L8.84047 36.045C7.98042 35.185 7.98043 33.7906 8.84047 32.9305C9.70051 32.0705 11.0949 32.0705 11.955 32.9305L11.955 32.9305L16.823 28.0625C14.8279 24.6844 15.2815 20.2605 18.184 17.3581L18.184 17.358L18.184 17.358L27.5275 8.01455C28.3875 7.1545 29.7819 7.15451 30.642 8.01455Z" fill="white"/>
    <defs>
        <linearGradient id="paint0_linear_1_2" x1="23.8731" y1="16.247" x2="23.8731" y2="43.2968" gradientUnits="userSpaceOnUse">
            <stop stop-color="#FF00F5"/>
            <stop offset="1" stop-color="#FF003D"/>
        </linearGradient>
    </defs>
</svg>
